PathFileType	4	(X/Y/Z)	D:\TRACE\v60_Jaco2_6-2-23\JustArmDRS_Motion1_3-v60.trc
DataRate	CameraRate	NumFrames	NumMarkers	Units	OrigDataRate	OrigDataStartFrame	OrigNumFrames
100.00	100.00	      24	9	mm	100.00	3382	      6763
Frame#	Time	front left toe			Front right toe			aft left toe			aft right toe			Arm			FL body			FR body			AL Body			AR Body			
		X1	Y1	Z1	X2	Y2	Z2	X3	Y3	Z3	X4	Y4	Z4	X5	Y5	Z5	X6	Y6	Z6	X7	Y7	Z7	X8	Y8	Z8	X9	Y9	Z9	

3382	33.810	-169.35901	20.02605	-168.28401	238.14931	14.15624	-211.68713	-103.38279	22.17204	436.74673	299.80725	21.31325	425.89883	77.76600	1117.77319	-655.87195	-34.79783	578.46698	-317.68625	124.45782	573.67444	-334.42389	62.82772	593.43469	622.42633	218.92929	583.29694	608.33075	
3383	33.820	-170.07617	20.14933	-168.19392	237.63878	14.51006	-211.76163	-104.10697	21.81551	436.71735	298.67017	21.01903	425.97098	76.77773	1118.04749	-655.45166	-35.67111	578.77307	-317.45389	123.68388	573.81207	-334.18127	61.56834	593.20197	622.14893	218.22975	582.87915	608.06403	
3384	33.830	-170.78110	20.30779	-168.15863	237.18054	14.78326	-211.53218	-104.60976	21.63461	436.64502	297.96964	20.79081	426.16281	76.18149	1118.44763	-654.92865	-36.39785	579.00134	-317.25153	123.49715	574.12451	-334.14856	61.37516	592.98755	622.92407	217.82294	582.49084	608.23163	
3385	33.840	-171.70070	20.44829	-168.08778	236.24432	14.89561	-211.48848	-105.63145	21.27066	436.83658	297.40302	20.61587	426.12146	75.23676	1118.82849	-654.30731	-37.07967	579.27039	-317.07153	122.47572	574.29047	-333.87076	60.77996	592.79108	623.13696	217.11778	582.22870	608.83295	
3386	33.850	-172.47531	20.40273	-167.82777	235.45366	14.87168	-211.53821	-106.34095	21.18709	436.93826	296.37897	20.22083	426.03387	74.65468	1119.22241	-653.81708	-38.08972	579.49225	-316.82352	121.24281	574.22925	-333.38602	60.15939	592.43713	623.38660	216.53729	582.01776	609.11401	
3387	33.860	-173.03706	20.44648	-167.65453	234.63934	14.94533	-211.34756	-106.91965	20.96192	436.80493	295.60449	19.97585	426.12112	73.86317	1119.63770	-653.26532	-39.22738	579.75177	-316.52271	120.64957	574.40350	-333.03802	59.47402	591.97272	623.62817	215.84785	581.65210	609.20508	
3388	33.870	-173.79233	20.58354	-167.69835	233.91068	15.24097	-211.27919	-107.97398	20.78726	436.95615	295.11792	19.83747	426.25064	72.71687	1119.98804	-652.80396	-39.92001	579.99487	-316.28891	119.98217	574.76270	-333.20349	59.02105	591.63739	623.92468	215.37112	581.34387	609.37476	
3389	33.880	-174.99043	20.83636	-167.51892	232.86316	15.23010	-211.18990	-108.77208	20.64332	437.34265	293.82846	19.38389	426.24692	72.16383	1120.35400	-652.39691	-40.75255	580.14594	-316.02875	118.38995	574.70917	-332.32291	58.21099	591.43390	624.10828	214.55505	580.90192	609.22382	
3390	33.890	-175.61691	21.07047	-167.50937	231.93367	15.33451	-211.27219	-109.37727	20.10330	437.48843	293.09518	19.21841	426.22717	70.88379	1120.85535	-652.02039	-41.51146	580.35962	-315.84262	117.83064	575.08472	-332.56143	57.12291	591.23615	623.85779	213.85046	580.49670	609.47620	
3391	33.900	-176.27243	21.10357	-167.46443	231.58614	15.64003	-210.98346	-109.98438	19.86488	437.46817	292.61685	19.16653	426.36307	69.91733	1121.03613	-651.64453	-42.27348	580.34497	-315.57068	117.28469	575.38037	-332.73291	56.73400	590.84216	624.47491	213.06940	580.26385	609.61145	
3392	33.910	-177.41795	21.29042	-167.31685	230.67174	15.78797	-210.83784	-111.12186	19.80276	437.57285	291.65161	18.86136	426.61502	69.08453	1121.32019	-651.22015	-43.30611	580.46960	-315.20209	116.39905	575.31720	-332.51895	56.13139	590.61292	624.65601	212.34836	579.95587	609.69525	
3393	33.920	-178.22093	21.35460	-167.19450	229.67598	15.88615	-210.72906	-111.96162	19.66256	437.60760	290.77924	18.67099	426.81509	68.19789	1121.53003	-650.57977	-44.09374	580.44562	-315.06860	115.17186	575.43036	-331.98843	55.47721	590.35809	624.80157	211.80548	579.75580	610.36053	
3394	33.930	-178.69318	21.25137	-167.07953	228.96533	16.05211	-210.59946	-112.47079	19.33142	437.70663	290.03177	18.50747	426.92273	67.65018	1121.59436	-650.19318	-45.10071	580.68298	-314.81747	114.45668	575.35443	-331.75989	54.21590	590.06091	624.74475	210.89293	579.62390	610.65613	
3395	33.940	-179.75124	21.62147	-166.91362	227.99675	15.95624	-210.63670	-113.37516	19.11409	437.92166	289.37650	18.23969	426.90729	66.70399	1121.86755	-649.65173	-45.75080	580.88312	-314.56491	113.70546	575.77380	-331.89606	53.98457	589.52411	624.94360	210.27904	579.44092	610.79303	
3396	33.950	-180.91824	21.88556	-166.78958	227.06120	16.09810	-210.58997	-114.28024	18.98410	438.08209	288.30392	17.91018	426.97430	65.82420	1122.06250	-649.31598	-46.90063	581.01520	-314.37289	112.06454	575.65991	-330.83334	53.12035	589.48724	625.67413	209.45331	579.12097	610.92218	
3397	33.960	-181.36002	21.95360	-166.85539	226.07678	16.13600	-210.53001	-115.04714	18.67524	438.09308	287.50583	17.67961	427.17834	64.79368	1122.30811	-648.91028	-47.85725	581.07867	-314.06317	111.61720	575.74225	-331.12299	52.50529	589.20984	625.90704	208.50673	578.76947	610.92450	
3398	33.970	-182.27007	22.21658	-166.53746	225.61346	16.44601	-210.15988	-116.11134	18.28116	438.22699	286.71420	17.51966	427.16443	63.81611	1122.46777	-648.43878	-48.61829	581.21130	-313.83081	111.13008	576.04028	-331.27142	51.31903	588.88806	626.13086	207.60866	578.45996	611.25226	
3399	33.980	-183.51131	22.28946	-166.46902	224.43835	16.63136	-210.04474	-117.08543	18.08075	438.29575	285.55099	17.08125	427.09464	62.74587	1122.86487	-647.99585	-49.78887	581.21173	-313.65836	110.10764	576.02411	-330.81683	50.72239	588.48907	625.91187	206.88855	578.18732	611.42242	
3400	33.990	-184.17670	22.12874	-166.47971	223.78647	16.70368	-210.16373	-117.52267	17.80095	438.45648	284.99634	17.01094	427.31512	62.01641	1122.94263	-647.56744	-50.52579	581.26215	-313.41925	108.70211	575.84650	-329.86270	49.77834	588.38550	626.53314	205.87708	577.85638	611.52332	
3401	34.000	-184.93855	22.25126	-166.23511	222.72136	16.87496	-210.05505	-118.63391	17.57301	438.27707	283.85358	16.67579	427.41901	60.60850	1123.28638	-647.03699	-51.39497	581.17493	-313.05396	107.73348	576.19940	-330.07510	48.43629	588.18671	626.38818	205.57884	577.71661	611.76788	
3402	34.010	-185.93347	22.43893	-166.05289	221.92052	16.94008	-209.99852	-119.75072	17.49148	438.54434	282.96719	16.34204	427.39380	59.49355	1123.49451	-646.68823	-52.12215	581.27521	-312.91895	107.21499	576.51947	-330.31607	47.85992	587.72052	626.48944	204.11928	577.42181	611.91541	
3403	34.020	-186.79962	22.62741	-165.95470	220.71098	17.12125	-209.82378	-120.41380	17.10094	438.50555	282.18399	16.25352	427.46988	58.54355	1123.70581	-646.21576	-53.11458	581.46301	-312.74615	105.80482	576.50464	-329.73294	46.86490	587.60980	627.13293	203.39250	577.35229	612.43555	
3404	34.030	-187.64410	22.64236	-165.85011	220.11932	17.32508	-209.66010	-121.14647	16.73206	438.69794	281.00714	15.81001	427.62787	57.48731	1123.90247	-645.72638	-54.30300	581.53418	-312.63641	105.53283	576.79169	-329.94379	45.40990	587.20801	627.00232	202.19000	577.00891	612.79852	
3405	34.040	-188.62231	22.65738	-165.84799	219.29764	17.46939	-209.63005	-122.37671	16.57096	438.92371	280.36337	15.74331	427.93332	56.54620	1124.12170	-645.29486	-55.48611	581.69946	-312.37085	104.14271	576.75854	-329.73663	45.00496	586.95630	627.57123	201.50623	576.76697	612.98944	
